{"title":"Chris Brown - Dont Judge Me {M4A+MP4} (1080p) x264 [VX] [P2PDL] ","uid":7692281,"size":59606070,"categoryP":"video","categoryS":"music_videos","magnet":"?xt=urn:btih:683ac4a6252e44e7d829f9bed9b14421ee938717&amp;dn=Chris+Brown+-+Dont+Judge+Me+%7BM4A%2BMP4%7D+%281080p%29+x264+%5BVX%5D+%5BP2PDL%5D+&amp;tr=udp%3A%2F%2Ftracker.openbittorrent.com%3A80&amp;tr=udp%3A%2F%2Fopen.demonii.com%3A1337&amp;tr=udp%3A%2F%2Ftracker.coppersurfer.tk%3A6969&amp;tr=udp%3A%2F%2Fexodus.desync.com%3A6969","seeders":5,"leechers":1,"uploader":"Vitamin_X","files":-1,"time":1349273581,"description":"Cover:  &lt;a href=&quot;\nhttp://www.shotpix.com/images/96049785416579349493.jpg&quot; rel=&quot;nofollow&quot; target=&quot;_NEW&quot;&gt;\nhttp://www.shotpix.com/images/96049785416579349493.jpg&lt;/a&gt;\n\n\nRelease Title: Chris Brown - Don't Judge Me (2012)\n\nMusic video by Chris Brown performing Don't Judge Me. (C) 2012 RCA Records, a division of Sony Music Entertainment\n\n\n                             1080p Full HD MP4 Video\n                                     +\n                             96 kbps/VBR M4A Audio\n\n\n\nSing Along!\nEnglish subtitles included.\n\n\n\nGeneral\n\nFormat                         : MPEG-4\nFile size                      : 53.6 MiB\nDuration                       : 4mn 51s\nOverall bit rate mode          : Variable\nOverall bit rate               : 1 542 Kbps\nRecorded date                  : 2012\nCover                          : Yes\n\nVideo\nID                             : 1\nFormat                         : AVC\nFormat/Info                    : Advanced Video Codec\nBit rate mode                  : Variable\nBit rate                       : 1 400 Kbps\nWidth                          : 1 920 pixels\nHeight                         : 1 080 pixels\nDisplay aspect ratio           : 16:9\nFrame rate mode                : Variable\nFrame rate                     : 23.976 fps\nStream size                    : 49.0 MiB (91%)\nWriting library                : x264 core 125\n\n\nAudio\nID                             : 2\nFormat                         : AAC\nFormat/Info                    : Advanced Audio Codec\nFormat profile                 : LC\nCodec ID                       : 40\nBit rate mode                  : Variable\nBit rate                       : 128 Kbps\nChannel(s)                     : 2 channels\nChannel positions              : Front: L R\nSampling rate                  : 48.0 KHz\nStream size                    : 4.44 MiB (8%)\n\n\n\n\nScreens:\n\n &lt;a href=&quot;\nhttp://www.shotpix.com/images/31347394502701030275.jpg&quot; rel=&quot;nofollow&quot; target=&quot;_NEW&quot;&gt;\nhttp://www.shotpix.com/images/31347394502701030275.jpg&lt;/a&gt; &lt;a href=&quot;\nhttp://www.shotpix.com/images/13905985321561026208.jpg&quot; rel=&quot;nofollow&quot; target=&quot;_NEW&quot;&gt;\nhttp://www.shotpix.com/images/13905985321561026208.jpg&lt;/a&gt;\n\n\n\n\nThumbs:\n &lt;a href=&quot;\nhttp://www.shotpix.com/images/28043322127322745435.jpg&quot; rel=&quot;nofollow&quot; target=&quot;_NEW&quot;&gt;\nhttp://www.shotpix.com/images/28043322127322745435.jpg&lt;/a&gt;\n\n\n------------------------------------------------------------------------\n\n\nNotes:\n\n* Best played on VLC Media Player.\n* Install shark007 codecs in case of any kind of problem in playback (For non-VLC Media Player users).\n* Alternatively, install Core AVC codecs, the fastest decoder that there is coupled with Community Center Codec Pack and play on Windows Media Player Classic.\n* Read NFO\n* Help in seeding this torrent as much as you can. \n\n\n\nGreets to: srkfan, VYTO, MgB, staff members at ExtraTorrent, TPB,KAT, 1337x, PublicHD, Ahashare,\nSilverTorrent, TorrentMafia, P2PDL, and all others\n\n\nEncoder Notes: Looking For Early Access To Anything You Can Provide DVDScr, R5, DVDRips, BluRay, Direct Audio, Early Music\nReleases, Seedboxes, Links, Dedicated Servers anything u can provide, Advance / Promo CDs/DVDs. If You Got anything to\noffer contact me at &quot;&lt;a class=&quot;__cf_email__&quot; href=&quot;/cdn-cgi/l/email-protection&quot; data-cfemail=&quot;44272b2a3025273004302d2a3d296a2131&quot;&gt;[email&amp;#160;protected]&lt;/a&gt;&lt;script cf-hash='f9e31' type=&quot;text/javascript&quot;&gt;\n/* &lt;![CDATA[ */!function(){try{var t=&quot;currentScript&quot;in document?document.currentScript:function(){for(var t=document.getElementsByTagName(&quot;script&quot;),e=t.length;e--;)if(t[e].getAttribute(&quot;cf-hash&quot;))return t[e]}();if(t&amp;&amp;t.previousSibling){var e,r,n,i,c=t.previousSibling,a=c.getAttribute(&quot;data-cfemail&quot;);if(a){for(e=&quot;&quot;,r=parseInt(a.substr(0,2),16),n=2;a.length-n;n+=2)i=parseInt(a.substr(n,2),16)^r,e+=String.fromCharCode(i);e=document.createTextNode(e),c.parentNode.replaceChild(e,c)}}}catch(u){}}();/* ]]&gt; */&lt;/script&gt;&quot;\n\n\nFacebook Fan Page: http:// www . facebook . com / p2pdl\n\n                                   Enjoy!","torrent":{"xt":"urn:btih:683ac4a6252e44e7d829f9bed9b14421ee938717","amp;dn":"Chris+Brown+-+Dont+Judge+Me+%7BM4A%2BMP4%7D+%281080p%29+x264+%5BVX%5D+%5BP2PDL%5D+","amp;tr":["udp%3A%2F%2Ftracker.openbittorrent.com%3A80","udp%3A%2F%2Fopen.demonii.com%3A1337","udp%3A%2F%2Ftracker.coppersurfer.tk%3A6969","udp%3A%2F%2Fexodus.desync.com%3A6969"],"infoHash":"683ac4a6252e44e7d829f9bed9b14421ee938717","infoHashBuffer":{"type":"Buffer","data":[104,58,196,166,37,46,68,231,216,41,249,190,217,177,68,33,238,147,135,23]},"announce":[],"urlList":[]}}